<svg xmlns="http://www.w3.org/2000/svg" width="18.837" height="18" viewBox="0 0 18.837 18">
  <g id="linkedin-logo" transform="translate(115 -29.558)">
    <path id="LinkedIn" d="M18.837,20.594v6.964H14.8v-6.5c0-1.632-.584-2.746-2.045-2.746a2.209,2.209,0,0,0-2.072,1.477,2.763,2.763,0,0,0-.134.984v6.783H6.51s.054-11.005,0-12.145h4.038v1.722c-.008.013-.019.027-.027.039h.027v-.039a4.01,4.01,0,0,1,3.64-2.007C16.845,15.127,18.837,16.863,18.837,20.594ZM2.285,9.558a2.1,2.1,0,1,0-.054,4.2h.027a2.105,2.105,0,1,0,.027-4.2Zm-2.046,18H4.277V15.413H.24Z" transform="translate(-115 20)" fill="#40223e" opacity="0.6"/>
  </g>
</svg>
