<svg xmlns="http://www.w3.org/2000/svg" width="227.977" height="56.256" viewBox="0 0 227.977 56.256">
  <g id="Group_208" data-name="Group 208" transform="translate(-324.429 -286.129)" opacity="0.6">
    <path id="Path_24" data-name="Path 24" d="M360.685,298.652l-4.152,4.754.633.365c3.312,1.919,4.848,4.459,4.1,6.794-.485,1.524-1.874,2.833-4.017,3.786a22.324,22.324,0,0,1-11.962,1.165c-4.125-.648-7.692-2.21-9.785-4.285l-.283-.28H324.429l.465.89c2.836,5.416,12.153,9.2,22.659,9.2,12.982,0,23.543-5.663,23.543-12.626,0-3.935-3.327-7.574-9.126-9.984l-.8-.332Z" transform="translate(0 -1.998)"/>
    <path id="Path_25" data-name="Path 25" d="M361.76,299.178l-3.723,4.263c3.46,2,5.278,4.769,4.424,7.448-1.365,4.28-9.023,6.721-17.105,5.453-4.514-.709-8.207-2.426-10.349-4.548H326.05c2.645,5.053,11.388,8.765,21.773,8.765,12.482,0,22.6-5.358,22.6-11.966C370.422,304.771,367.031,301.368,361.76,299.178Z" transform="translate(-0.271 -2.178)"/>
    <path id="Path_26" data-name="Path 26" d="M336.435,298.754c0,3.935,3.326,7.575,9.126,9.984l.8.332L351,303.762l-.634-.367c-3.314-1.918-4.847-4.457-4.1-6.793.486-1.523,1.874-2.833,4.018-3.786a22.324,22.324,0,0,1,11.962-1.164c4.125.646,7.692,2.209,9.784,4.283l.282.279H383.1l-.466-.889c-2.834-5.415-12.152-9.2-22.659-9.2C347,286.129,336.435,291.793,336.435,298.754Z" transform="translate(-2.004 0)"/>
    <path id="Path_27" data-name="Path 27" d="M346.23,308.3l3.723-4.263c-3.462-2-5.276-4.768-4.423-7.448,1.364-4.28,9.021-6.721,17.106-5.453,4.514.709,8.206,2.425,10.348,4.547h8.957c-2.647-5.052-11.39-8.762-21.775-8.762-12.48,0-22.6,5.358-22.6,11.964C337.567,302.711,340.958,306.112,346.23,308.3Z" transform="translate(-2.193 -0.132)"/>
    <path id="Path_28" data-name="Path 28" d="M415.832,321.532a10.082,10.082,0,0,1-5.954,1.732,8.821,8.821,0,0,1-6.736-2.662,10.2,10.2,0,0,1-2.511-7.289,14.753,14.753,0,0,1,.2-2.363,14.57,14.57,0,0,1,4.757-9.319,11.544,11.544,0,0,1,7.75-2.995,8.322,8.322,0,0,1,5.522,1.863l-.968,6.754a5.318,5.318,0,0,0-4.64-2.785,5.7,5.7,0,0,0-4.673,2.493,8.733,8.733,0,0,0-1.8,5.452,5.15,5.15,0,0,0,1.269,3.656,4.391,4.391,0,0,0,3.375,1.363A7.906,7.906,0,0,0,416.8,314.9Z" transform="translate(-12.72 -2.088)" fill-rule="evenodd"/>
    <path id="Path_29" data-name="Path 29" d="M423.019,322.713l3.358-23.326h12.674l-.8,5.571h-6.787l-.427,3.332h6.116l-.767,5.1h-6.135l-.54,3.749h6.81l-.8,5.572Z" transform="translate(-16.457 -2.213)" fill-rule="evenodd"/>
    <path id="Path_30" data-name="Path 30" d="M440.987,322.713l6.455-23.326h5.926l1.672,14.294,5.79-14.294h5.9l-.285,23.326h-5.676l.373-13.5-5.522,13.5h-3.791l-1.62-13.422-3.5,13.422Z" transform="translate(-19.456 -2.213)" fill-rule="evenodd"/>
    <path id="Path_31" data-name="Path 31" d="M485.542,323.264a9.623,9.623,0,0,1-7.019-2.563,9.871,9.871,0,0,1-2.794-7.454,13.958,13.958,0,0,1,.2-2.3A14.837,14.837,0,0,1,480.336,302a12.275,12.275,0,0,1,8.732-3.361,9.619,9.619,0,0,1,7.018,2.563,9.938,9.938,0,0,1,2.761,7.454,15.014,15.014,0,0,1-.2,2.3,14.466,14.466,0,0,1-4.375,8.953A12.351,12.351,0,0,1,485.542,323.264Zm.757-5.571a5.438,5.438,0,0,0,4.292-2.037,9.14,9.14,0,0,0,2.011-4.706,12.421,12.421,0,0,0,.1-1.535,5.768,5.768,0,0,0-1.173-3.771,4.007,4.007,0,0,0-3.285-1.436,5.407,5.407,0,0,0-4.26,2.037,9.139,9.139,0,0,0-2.011,4.706,12.281,12.281,0,0,0-.1,1.536,5.767,5.767,0,0,0,1.174,3.772A3.971,3.971,0,0,0,486.3,317.694Z" transform="translate(-25.256 -2.088)" fill-rule="evenodd"/>
    <path id="Path_32" data-name="Path 32" d="M521.275,321.532a10.078,10.078,0,0,1-5.953,1.732,8.821,8.821,0,0,1-6.736-2.662,10.2,10.2,0,0,1-2.511-7.289,14.75,14.75,0,0,1,.2-2.363,14.575,14.575,0,0,1,4.758-9.319,11.546,11.546,0,0,1,7.75-2.995A8.318,8.318,0,0,1,524.3,300.5l-.968,6.754a5.317,5.317,0,0,0-4.639-2.785,5.7,5.7,0,0,0-4.673,2.493,8.732,8.732,0,0,0-1.8,5.452,5.148,5.148,0,0,0,1.27,3.656,4.389,4.389,0,0,0,3.374,1.363,7.9,7.9,0,0,0,5.378-2.528Z" transform="translate(-30.321 -2.088)" fill-rule="evenodd"/>
    <rect id="Rectangle_87" data-name="Rectangle 87" width="166.889" height="0.417" transform="translate(385.516 323.765)"/>
    <g id="Group_207" data-name="Group 207" transform="translate(474.466 328.109)">
      <path id="Path_33" data-name="Path 33" d="M585.412,336.52a1.394,1.394,0,0,0-1.026.495,1.579,1.579,0,0,0-.465,1.112,1.25,1.25,0,0,0,.3.865,1,1,0,0,0,.785.34,1.405,1.405,0,0,0,1.047-.486,1.6,1.6,0,0,0,.458-1.136,1.218,1.218,0,0,0-.3-.865A1.043,1.043,0,0,0,585.412,336.52Z" transform="translate(-517.781 -336.52)" fill-rule="evenodd"/>
      <g id="Group_206" data-name="Group 206" transform="translate(0 3.296)">
        <path id="Path_34" data-name="Path 34" d="M511.953,345.085a6.355,6.355,0,0,0,.124-1.175,3.58,3.58,0,0,0-.834-2.545,3.079,3.079,0,0,0-2.361-.888,4.025,4.025,0,0,0-2.856,1.08,4.762,4.762,0,0,0-1.5,3.69,3.172,3.172,0,0,0,.911,2.439,3.259,3.259,0,0,0,2.332.8,4.072,4.072,0,0,0,4.012-2.546H509.42a1.334,1.334,0,0,1-1.421.921q-1.236,0-1.236-1.4c0-.072.011-.2.031-.383Zm-4.321-2.559a1.424,1.424,0,0,1,1.034-.424,1.055,1.055,0,0,1,.911.424,1.5,1.5,0,0,1,.231,1.09h-2.747A2.082,2.082,0,0,1,507.632,342.526Z" transform="translate(-504.529 -340.477)" fill-rule="evenodd"/>
        <path id="Path_35" data-name="Path 35" d="M522.622,350.42l.57-4.015h-.972l.8-5.592h-6.191l-.4,2.823q-.371,2.745-1.884,2.776l-.556,4.008h2.144l.315-2.155h4.315l-.307,2.155Zm-2.784-4.015h-2.356a3.768,3.768,0,0,0,1.09-2.4l.191-1.331h1.627Z" transform="translate(-506.109 -340.533)" fill-rule="evenodd"/>
        <path id="Path_36" data-name="Path 36" d="M532.962,340.813l-2.161,3.994-1.3-3.994h-2.84l2.425,6.374-2.694,4.326h2.662l6.437-10.7Z" transform="translate(-508.179 -340.533)" fill-rule="evenodd"/>
        <path id="Path_37" data-name="Path 37" d="M542.131,348.265h3.094l-2.47-3.949,3.288-3.5h-3l-2.474,3,.429-3h-2.477l-1.065,7.451h2.461l.485-3.278Z" transform="translate(-510.026 -340.533)" fill-rule="evenodd"/>
        <path id="Path_38" data-name="Path 38" d="M549.6,341.681a5.33,5.33,0,0,0-1.248,3.628,3.63,3.63,0,0,0,.663,2.27,2.365,2.365,0,0,0,1.975.911,2.988,2.988,0,0,0,2.376-1.161l-.126.881h2.366l1.066-7.452H554.31l-.129.9a2.213,2.213,0,0,0-2.049-1.185A3.208,3.208,0,0,0,549.6,341.681Zm4.309,2.423a2.444,2.444,0,0,1-.493,1.518,1.524,1.524,0,0,1-1.266.651q-1.235,0-1.235-1.44a2.376,2.376,0,0,1,.493-1.5,1.539,1.539,0,0,1,1.266-.635Q553.913,342.695,553.913,344.1Z" transform="translate(-511.845 -340.477)" fill-rule="evenodd"/>
        <path id="Path_39" data-name="Path 39" d="M563.138,340.813h-2.462l-1.066,7.451h5.8l-.307,2.155h2.161l.571-4.014h-.988l.8-5.592h-2.462l-.8,5.592h-2.05Z" transform="translate(-513.723 -340.533)" fill-rule="evenodd"/>
        <path id="Path_40" data-name="Path 40" d="M578.285,348.265l1.064-7.451H577l-3.031,3.981.585-3.981H572.08l-1.065,7.451h2.4l3-4.091-.585,4.091Z" transform="translate(-515.627 -340.533)" fill-rule="evenodd"/>
        <path id="Path_41" data-name="Path 41" d="M581.774,351.513h2.462l1.528-10.7H583.3Z" transform="translate(-517.423 -340.533)" fill-rule="evenodd"/>
        <path id="Path_42" data-name="Path 42" d="M593.8,341.662a2.211,2.211,0,0,0-2.049-1.185,3.209,3.209,0,0,0-2.527,1.2,5.336,5.336,0,0,0-1.248,3.628,3.631,3.631,0,0,0,.663,2.27,2.365,2.365,0,0,0,1.975.911,2.986,2.986,0,0,0,2.376-1.161l-.126.881h2.367l1.065-7.452h-2.367Zm-.76,3.96a1.526,1.526,0,0,1-1.266.651q-1.234,0-1.235-1.44a2.376,2.376,0,0,1,.493-1.5,1.539,1.539,0,0,1,1.266-.635q1.233,0,1.235,1.409A2.444,2.444,0,0,1,593.037,345.621Z" transform="translate(-518.458 -340.477)" fill-rule="evenodd"/>
      </g>
    </g>
  </g>
</svg>
